<svg width="36" height="36" viewBox="0 0 36 36" fill="none" xmlns="http://www.w3.org/2000/svg">
<path d="M24.9455 36H11.0545C4.95914 36 0 30.9797 0 24.8091V11.1909C0 5.02033 4.95914 0 11.0545 0H24.9455C31.0409 0 36 5.02033 36 11.1909V24.8091C36 30.9797 31.0409 36 24.9455 36ZM11.0545 2.02934C8.6552 2.03217 6.35494 2.99831 4.65835 4.71583C2.96177 6.43334 2.0074 8.76199 2.00461 11.1909V24.8091C2.0074 27.238 2.96177 29.5667 4.65835 31.2842C6.35494 33.0017 8.6552 33.9678 11.0545 33.9707H24.9455C27.3448 33.9678 29.6451 33.0017 31.3416 31.2842C33.0382 29.5667 33.9926 27.238 33.9954 24.8091V11.1909C33.9926 8.76199 33.0382 6.43334 31.3416 4.71583C29.6451 2.99831 27.3448 2.03217 24.9455 2.02934H11.0545Z" fill="white"/>
<path d="M17.6 15.2C13.1884 15.2 9.59998 11.3358 9.59998 6.58595C9.59998 6.32446 9.70269 6.07368 9.88553 5.88878C10.0684 5.70388 10.3163 5.60001 10.5749 5.60001C10.8335 5.60001 11.0815 5.70388 11.2643 5.88878C11.4471 6.07368 11.5499 6.32446 11.5499 6.58595C11.5499 10.2481 14.264 13.2281 17.6 13.2281C20.936 13.2281 23.6494 10.2481 23.6494 6.58595C23.6561 6.32889 23.7618 6.08465 23.944 5.90524C24.1262 5.72584 24.3704 5.62544 24.6247 5.62544C24.879 5.62544 25.1232 5.72584 25.3054 5.90524C25.4875 6.08465 25.5932 6.32889 25.6 6.58595C25.6 11.3358 22.0108 15.2 17.6 15.2Z" fill="white"/>
</svg>
