<svg id="Layer_1" data-name="Layer 1" xmlns="http://www.w3.org/2000/svg" viewBox="0 0 830.3 830.3"><defs><style>.cls-1{fill:#fff;}</style></defs><path class="cls-1" d="M627.9,173.79H494.27c-23.59,0-35.94,28-20,45.43l10.59,11.6a27.13,27.13,0,0,0,20,8.84h63A27.13,27.13,0,0,1,595,266.79v75a27.14,27.14,0,0,0,27.13,27.14h11.6a27.13,27.13,0,0,0,27.13-27.14V200.92a27.13,27.13,0,0,0-27.13-27.13Z"/><path class="cls-1" d="M547.93,511.12,243.39,182.48a27.15,27.15,0,0,0-19.91-8.69H196.6a27.14,27.14,0,0,0-27.14,27.13V341.8a27.14,27.14,0,0,0,27.14,27.14h11.6a27.14,27.14,0,0,0,27.13-27.14h0c0-24.59,30.1-36.5,46.92-18.57L586.93,647.94a27.12,27.12,0,0,0,19.79,8.57h27a27.13,27.13,0,0,0,27.13-27.14V488.5a27.13,27.13,0,0,0-27.13-27.14H622.1A27.14,27.14,0,0,0,595,488.5v4.18C595,517.35,564.7,529.22,547.93,511.12Z"/><path class="cls-1" d="M235.33,563.51v-75a27.14,27.14,0,0,0-27.13-27.14H196.6a27.14,27.14,0,0,0-27.14,27.14V629.37a27.14,27.14,0,0,0,27.14,27.14H336c23.58,0,35.94-28,20-45.43l-10.59-11.6a27.13,27.13,0,0,0-20-8.84h-63A27.14,27.14,0,0,1,235.33,563.51Z"/></svg>