<svg width="36" height="36" viewBox="0 0 36 36" fill="none" xmlns="http://www.w3.org/2000/svg">
<path d="M8.39297 13.6074L8.35949 13.6609L8.33303 13.7183C7.83218 14.8037 8.02581 16.0007 8.40103 17.021C8.78367 18.0616 9.41918 19.0964 10.0633 19.9896C10.7129 20.8904 11.4021 21.6892 11.9256 22.26C12.1882 22.5464 12.4113 22.7778 12.5699 22.9387C12.6492 23.0192 12.7125 23.0822 12.7567 23.1257L12.8083 23.1763L12.8143 23.1821L12.8202 23.1882L12.871 23.24C12.9147 23.2843 12.9779 23.3477 13.0585 23.427C13.2198 23.5856 13.4517 23.8083 13.7387 24.0697C14.3104 24.5906 15.1111 25.2745 16.0148 25.9118C16.9102 26.5431 17.952 27.161 19.0029 27.5114C20.0367 27.8561 21.2401 27.9927 22.3179 27.4187C22.9239 27.1124 23.4397 26.6305 23.8735 26.1748C24.0973 25.9396 24.3174 25.6914 24.5267 25.455L24.5477 25.4312C24.7533 25.199 24.9494 24.9774 25.1488 24.7651C26.0175 23.8401 26.6757 23.405 27.3989 23.4708C27.8181 23.5089 28.6327 23.7846 29.6658 24.3099C30.6637 24.8174 31.755 25.5007 32.6995 26.2458C33.6605 27.004 34.3939 27.7672 34.7607 28.417C34.9413 28.7367 34.998 28.968 34.9999 29.1178C35.0015 29.2375 34.9714 29.3408 34.861 29.4626C32.4034 32.1441 30.7629 33.4907 29.3075 34.1935C27.8868 34.8796 26.5566 34.9954 24.5607 34.9954H24.5446L24.5285 34.9959C21.3856 35.0973 17.901 33.3 14.9758 31.2101C12.2354 29.2522 10.1613 27.1671 9.5767 26.5794C9.54627 26.5488 9.51987 26.5223 9.49763 26.5001L9.49769 26.5L9.48881 26.4913L9.48879 26.4913L9.48863 26.4912L9.48814 26.4907L9.48441 26.487L9.46747 26.4703C9.45202 26.4551 9.42837 26.4316 9.39707 26.4002C9.33446 26.3375 9.24128 26.2433 9.12197 26.1201C8.88327 25.8736 8.54035 25.5118 8.12858 25.0551C7.30394 24.1405 6.20863 22.8518 5.12258 21.353C4.03447 19.8513 2.96986 18.1582 2.19383 16.4344C1.41406 14.7023 0.954093 13.0016 1.00364 11.4654L1.00415 11.4493V11.4332C1.00415 9.4368 1.11996 8.10622 1.8059 6.68501C2.50854 5.22922 3.85486 3.58837 6.53566 1.13022C6.65309 1.02386 6.74988 0.996987 6.86479 1.00024C7.01234 1.00442 7.24401 1.06501 7.56653 1.25411C8.22063 1.63764 8.98663 2.39355 9.74702 3.3714C10.4942 4.33224 11.1794 5.43379 11.6885 6.42538C12.2163 7.45348 12.4882 8.23599 12.526 8.59892C12.5891 9.31614 12.158 9.97455 11.2143 10.8351C10.99 11.0397 10.7527 11.2421 10.5037 11.4529C10.4756 11.4767 10.4474 11.5006 10.4189 11.5246C10.1997 11.71 9.97131 11.9032 9.75265 12.0975C9.26691 12.5289 8.75407 13.0295 8.39297 13.6074Z" stroke="white" stroke-width="2"/>
</svg>
